<mxfile host="app.diagrams.net" agent="Mozilla/5.0 (Windows NT 10.0; Win64; x64) AppleWebKit/537.36 (KHTML, like Gecko) Chrome/136.0.0.0 Safari/537.36" version="26.2.14">
  <diagram name="Page-1" id="iS34YqVPuRqQh7kfKNPt">
    <mxGraphModel dx="831" dy="500" grid="1" gridSize="10" guides="1" tooltips="1" connect="1" arrows="1" fold="1" page="1" pageScale="1" pageWidth="850" pageHeight="1100" math="0" shadow="0">
      <root>
        <mxCell id="0" />
        <mxCell id="1" parent="0" />
        <mxCell id="_wSKRO3pbXKkWkhRe5oP-1" value="SSH/User Management System" style="whiteSpace=wrap;strokeWidth=2;verticalAlign=top;" vertex="1" parent="1">
          <mxGeometry x="20" y="20" width="2402" height="462" as="geometry" />
        </mxCell>
        <mxCell id="_wSKRO3pbXKkWkhRe5oP-2" value="SSH Configuration" style="whiteSpace=wrap;strokeWidth=2;" vertex="1" parent="_wSKRO3pbXKkWkhRe5oP-1">
          <mxGeometry x="431" y="212" width="188" height="54" as="geometry" />
        </mxCell>
        <mxCell id="_wSKRO3pbXKkWkhRe5oP-3" value="SSH Configuration Details" style="whiteSpace=wrap;strokeWidth=2;" vertex="1" parent="_wSKRO3pbXKkWkhRe5oP-1">
          <mxGeometry x="28" y="175" width="972" height="258" as="geometry" />
        </mxCell>
        <mxCell id="_wSKRO3pbXKkWkhRe5oP-4" value="System Administrator" style="whiteSpace=wrap;strokeWidth=2;" vertex="1" parent="_wSKRO3pbXKkWkhRe5oP-1">
          <mxGeometry x="1087" y="46" width="212" height="54" as="geometry" />
        </mxCell>
        <mxCell id="_wSKRO3pbXKkWkhRe5oP-5" value="User Management" style="whiteSpace=wrap;strokeWidth=2;" vertex="1" parent="_wSKRO3pbXKkWkhRe5oP-1">
          <mxGeometry x="1774" y="212" width="187" height="54" as="geometry" />
        </mxCell>
        <mxCell id="_wSKRO3pbXKkWkhRe5oP-6" value="View Logs" style="whiteSpace=wrap;strokeWidth=2;" vertex="1" parent="_wSKRO3pbXKkWkhRe5oP-1">
          <mxGeometry x="1035" y="212" width="130" height="54" as="geometry" />
        </mxCell>
        <mxCell id="_wSKRO3pbXKkWkhRe5oP-7" value="Exit System" style="whiteSpace=wrap;strokeWidth=2;" vertex="1" parent="_wSKRO3pbXKkWkhRe5oP-1">
          <mxGeometry x="1215" y="212" width="143" height="54" as="geometry" />
        </mxCell>
        <mxCell id="_wSKRO3pbXKkWkhRe5oP-8" value="Add User" style="whiteSpace=wrap;strokeWidth=2;" vertex="1" parent="_wSKRO3pbXKkWkhRe5oP-1">
          <mxGeometry x="1428" y="341" width="124" height="54" as="geometry" />
        </mxCell>
        <mxCell id="_wSKRO3pbXKkWkhRe5oP-9" value="Delete User" style="whiteSpace=wrap;strokeWidth=2;" vertex="1" parent="_wSKRO3pbXKkWkhRe5oP-1">
          <mxGeometry x="1602" y="341" width="144" height="54" as="geometry" />
        </mxCell>
        <mxCell id="_wSKRO3pbXKkWkhRe5oP-10" value="Modify User" style="whiteSpace=wrap;strokeWidth=2;" vertex="1" parent="_wSKRO3pbXKkWkhRe5oP-1">
          <mxGeometry x="1795" y="341" width="144" height="54" as="geometry" />
        </mxCell>
        <mxCell id="_wSKRO3pbXKkWkhRe5oP-11" value="List Users" style="whiteSpace=wrap;strokeWidth=2;" vertex="1" parent="_wSKRO3pbXKkWkhRe5oP-1">
          <mxGeometry x="1989" y="341" width="129" height="54" as="geometry" />
        </mxCell>
        <mxCell id="_wSKRO3pbXKkWkhRe5oP-12" value="Generate SSH Key" style="whiteSpace=wrap;strokeWidth=2;" vertex="1" parent="_wSKRO3pbXKkWkhRe5oP-1">
          <mxGeometry x="2168" y="341" width="188" height="54" as="geometry" />
        </mxCell>
        <mxCell id="_wSKRO3pbXKkWkhRe5oP-13" value="Disable Root Login" style="whiteSpace=wrap;strokeWidth=2;" vertex="1" parent="_wSKRO3pbXKkWkhRe5oP-1">
          <mxGeometry x="63" y="341" width="191" height="54" as="geometry" />
        </mxCell>
        <mxCell id="_wSKRO3pbXKkWkhRe5oP-14" value="Restart SSH Service" style="whiteSpace=wrap;strokeWidth=2;" vertex="1" parent="_wSKRO3pbXKkWkhRe5oP-1">
          <mxGeometry x="304" y="341" width="198" height="54" as="geometry" />
        </mxCell>
        <mxCell id="_wSKRO3pbXKkWkhRe5oP-15" value="Modify SSH Config" style="whiteSpace=wrap;strokeWidth=2;" vertex="1" parent="_wSKRO3pbXKkWkhRe5oP-1">
          <mxGeometry x="553" y="341" width="188" height="54" as="geometry" />
        </mxCell>
        <mxCell id="_wSKRO3pbXKkWkhRe5oP-16" value="View SSH Status" style="whiteSpace=wrap;strokeWidth=2;" vertex="1" parent="_wSKRO3pbXKkWkhRe5oP-1">
          <mxGeometry x="791" y="341" width="174" height="54" as="geometry" />
        </mxCell>
        <mxCell id="_wSKRO3pbXKkWkhRe5oP-17" value="User Management Details" style="whiteSpace=wrap;strokeWidth=2;" vertex="1" parent="_wSKRO3pbXKkWkhRe5oP-1">
          <mxGeometry x="1393" y="175" width="998" height="258" as="geometry" />
        </mxCell>
        <mxCell id="_wSKRO3pbXKkWkhRe5oP-18" value="" style="curved=1;startArrow=none;endArrow=block;exitX=1;exitY=0.68;entryX=0.5;entryY=0;rounded=0;" edge="1" parent="_wSKRO3pbXKkWkhRe5oP-1" source="_wSKRO3pbXKkWkhRe5oP-4" target="_wSKRO3pbXKkWkhRe5oP-5">
          <mxGeometry relative="1" as="geometry">
            <Array as="points">
              <mxPoint x="1867" y="137" />
            </Array>
          </mxGeometry>
        </mxCell>
        <mxCell id="_wSKRO3pbXKkWkhRe5oP-19" value="" style="curved=1;startArrow=none;endArrow=block;exitX=0;exitY=0.68;entryX=0.5;entryY=0;rounded=0;" edge="1" parent="_wSKRO3pbXKkWkhRe5oP-1" source="_wSKRO3pbXKkWkhRe5oP-4" target="_wSKRO3pbXKkWkhRe5oP-2">
          <mxGeometry relative="1" as="geometry">
            <Array as="points">
              <mxPoint x="525" y="137" />
            </Array>
          </mxGeometry>
        </mxCell>
        <mxCell id="_wSKRO3pbXKkWkhRe5oP-20" value="" style="curved=1;startArrow=none;endArrow=block;exitX=0.32;exitY=0.99;entryX=0.5;entryY=0;rounded=0;" edge="1" parent="_wSKRO3pbXKkWkhRe5oP-1" source="_wSKRO3pbXKkWkhRe5oP-4" target="_wSKRO3pbXKkWkhRe5oP-6">
          <mxGeometry relative="1" as="geometry">
            <Array as="points">
              <mxPoint x="1100" y="137" />
            </Array>
          </mxGeometry>
        </mxCell>
        <mxCell id="_wSKRO3pbXKkWkhRe5oP-21" value="" style="curved=1;startArrow=none;endArrow=block;exitX=0.69;exitY=0.99;entryX=0.5;entryY=0;rounded=0;" edge="1" parent="_wSKRO3pbXKkWkhRe5oP-1" source="_wSKRO3pbXKkWkhRe5oP-4" target="_wSKRO3pbXKkWkhRe5oP-7">
          <mxGeometry relative="1" as="geometry">
            <Array as="points">
              <mxPoint x="1286" y="137" />
            </Array>
          </mxGeometry>
        </mxCell>
        <mxCell id="_wSKRO3pbXKkWkhRe5oP-22" value="" style="curved=1;startArrow=none;endArrow=block;exitX=0;exitY=0.8;entryX=0.5;entryY=0;rounded=0;" edge="1" parent="_wSKRO3pbXKkWkhRe5oP-1" source="_wSKRO3pbXKkWkhRe5oP-5" target="_wSKRO3pbXKkWkhRe5oP-8">
          <mxGeometry relative="1" as="geometry">
            <Array as="points">
              <mxPoint x="1490" y="304" />
            </Array>
          </mxGeometry>
        </mxCell>
        <mxCell id="_wSKRO3pbXKkWkhRe5oP-23" value="" style="curved=1;startArrow=none;endArrow=block;exitX=0.07;exitY=1;entryX=0.5;entryY=0;rounded=0;" edge="1" parent="_wSKRO3pbXKkWkhRe5oP-1" source="_wSKRO3pbXKkWkhRe5oP-5" target="_wSKRO3pbXKkWkhRe5oP-9">
          <mxGeometry relative="1" as="geometry">
            <Array as="points">
              <mxPoint x="1674" y="304" />
            </Array>
          </mxGeometry>
        </mxCell>
        <mxCell id="_wSKRO3pbXKkWkhRe5oP-24" value="" style="curved=1;startArrow=none;endArrow=block;exitX=0.5;exitY=1;entryX=0.5;entryY=0;rounded=0;" edge="1" parent="_wSKRO3pbXKkWkhRe5oP-1" source="_wSKRO3pbXKkWkhRe5oP-5" target="_wSKRO3pbXKkWkhRe5oP-10">
          <mxGeometry relative="1" as="geometry">
            <Array as="points" />
          </mxGeometry>
        </mxCell>
        <mxCell id="_wSKRO3pbXKkWkhRe5oP-25" value="" style="curved=1;startArrow=none;endArrow=block;exitX=0.92;exitY=1;entryX=0.5;entryY=0;rounded=0;" edge="1" parent="_wSKRO3pbXKkWkhRe5oP-1" source="_wSKRO3pbXKkWkhRe5oP-5" target="_wSKRO3pbXKkWkhRe5oP-11">
          <mxGeometry relative="1" as="geometry">
            <Array as="points">
              <mxPoint x="2054" y="304" />
            </Array>
          </mxGeometry>
        </mxCell>
        <mxCell id="_wSKRO3pbXKkWkhRe5oP-26" value="" style="curved=1;startArrow=none;endArrow=block;exitX=1;exitY=0.78;entryX=0.5;entryY=0;rounded=0;" edge="1" parent="_wSKRO3pbXKkWkhRe5oP-1" source="_wSKRO3pbXKkWkhRe5oP-5" target="_wSKRO3pbXKkWkhRe5oP-12">
          <mxGeometry relative="1" as="geometry">
            <Array as="points">
              <mxPoint x="2262" y="304" />
            </Array>
          </mxGeometry>
        </mxCell>
        <mxCell id="_wSKRO3pbXKkWkhRe5oP-27" value="" style="curved=1;startArrow=none;endArrow=block;exitX=0;exitY=0.81;entryX=0.5;entryY=0;rounded=0;" edge="1" parent="_wSKRO3pbXKkWkhRe5oP-1" source="_wSKRO3pbXKkWkhRe5oP-2" target="_wSKRO3pbXKkWkhRe5oP-13">
          <mxGeometry relative="1" as="geometry">
            <Array as="points">
              <mxPoint x="159" y="304" />
            </Array>
          </mxGeometry>
        </mxCell>
        <mxCell id="_wSKRO3pbXKkWkhRe5oP-28" value="" style="curved=1;startArrow=none;endArrow=block;exitX=0.23;exitY=1;entryX=0.5;entryY=0;rounded=0;" edge="1" parent="_wSKRO3pbXKkWkhRe5oP-1" source="_wSKRO3pbXKkWkhRe5oP-2" target="_wSKRO3pbXKkWkhRe5oP-14">
          <mxGeometry relative="1" as="geometry">
            <Array as="points">
              <mxPoint x="404" y="304" />
            </Array>
          </mxGeometry>
        </mxCell>
        <mxCell id="_wSKRO3pbXKkWkhRe5oP-29" value="" style="curved=1;startArrow=none;endArrow=block;exitX=0.77;exitY=1;entryX=0.5;entryY=0;rounded=0;" edge="1" parent="_wSKRO3pbXKkWkhRe5oP-1" source="_wSKRO3pbXKkWkhRe5oP-2" target="_wSKRO3pbXKkWkhRe5oP-15">
          <mxGeometry relative="1" as="geometry">
            <Array as="points">
              <mxPoint x="647" y="304" />
            </Array>
          </mxGeometry>
        </mxCell>
        <mxCell id="_wSKRO3pbXKkWkhRe5oP-30" value="" style="curved=1;startArrow=none;endArrow=block;exitX=1;exitY=0.82;entryX=0.5;entryY=0;rounded=0;" edge="1" parent="_wSKRO3pbXKkWkhRe5oP-1" source="_wSKRO3pbXKkWkhRe5oP-2" target="_wSKRO3pbXKkWkhRe5oP-16">
          <mxGeometry relative="1" as="geometry">
            <Array as="points">
              <mxPoint x="878" y="304" />
            </Array>
          </mxGeometry>
        </mxCell>
      </root>
    </mxGraphModel>
  </diagram>
</mxfile>
